<?xml version="1.0" encoding="utf-8"?>
<svg viewBox="108.849 71.013 291.617 151.339" xmlns="http://www.w3.org/2000/svg">
  <path d="M 159.108 111.085 L 159.108 105.6 L 173.845 105.6 L 173.845 111.085 L 159.108 111.085 Z M 193.842 81.577 C 196.147 81.577 198.078 81.749 199.638 82.094 C 201.188 82.439 202.489 82.973 203.542 83.695 C 204.745 84.561 205.673 85.657 206.329 86.979 C 206.995 88.301 207.327 89.724 207.327 91.246 C 207.327 93.347 206.582 95.119 205.092 96.565 C 203.592 98.01 201.476 99.01 198.744 99.565 L 198.744 99.765 C 201.854 100.11 204.352 101.282 206.239 103.283 C 208.136 105.283 209.086 107.801 209.086 110.835 C 209.086 112.38 208.783 113.852 208.177 115.253 C 207.581 116.641 206.742 117.787 205.658 118.687 C 204.496 119.654 203.066 120.342 201.367 120.754 C 199.679 121.166 197.448 121.371 194.676 121.371 L 178.271 121.371 L 178.271 119.454 L 182.204 118.32 L 182.204 84.578 L 178.271 83.494 L 178.271 81.577 L 193.842 81.577 Z M 190.147 98.782 L 190.653 98.782 C 191.696 98.782 192.511 98.732 193.097 98.632 C 194.945 98.42 196.371 97.698 197.373 96.465 C 198.376 95.219 198.878 93.547 198.878 91.447 C 198.878 89.068 198.233 87.295 196.941 86.128 C 195.611 84.95 193.623 84.361 190.981 84.361 L 190.147 84.361 L 190.147 98.782 Z M 190.147 101.583 L 190.147 115.536 C 190.147 116.736 190.395 117.553 190.892 117.987 C 191.379 118.42 192.318 118.637 193.708 118.637 C 195.983 118.637 197.667 117.965 198.759 116.62 C 199.851 115.274 200.398 113.191 200.398 110.368 C 200.398 107.334 199.708 105.112 198.327 103.7 C 196.937 102.288 194.781 101.583 191.86 101.583 L 190.147 101.583 Z M 225.855 93.464 C 228.597 93.464 230.961 94.092 232.948 95.348 C 234.935 96.603 236.445 98.31 237.478 100.466 C 238.512 102.621 239.027 105.028 239.027 107.684 C 239.027 110.33 238.512 112.73 237.478 114.886 C 236.445 117.042 234.935 118.749 232.948 120.004 C 230.961 121.259 228.597 121.888 225.855 121.888 C 223.113 121.888 220.75 121.259 218.762 120.004 C 216.776 118.749 215.266 117.042 214.232 114.886 C 213.21 112.73 212.697 110.33 212.697 107.684 C 212.697 105.028 213.21 102.621 214.232 100.466 C 215.266 98.31 216.776 96.603 218.762 95.348 C 220.75 94.092 223.113 93.464 225.855 93.464 Z M 220.446 107.684 C 220.446 110.818 220.839 113.531 221.623 115.82 C 222.419 118.109 223.828 119.254 225.855 119.254 C 227.862 119.254 229.263 118.098 230.057 115.786 C 230.862 113.486 231.264 110.785 231.264 107.684 C 231.264 104.572 230.872 101.871 230.087 99.582 C 229.303 97.293 227.892 96.148 225.855 96.148 C 223.828 96.148 222.419 97.293 221.623 99.582 C 220.839 101.871 220.446 104.572 220.446 107.684 Z M 255.5 93.464 C 258.242 93.464 260.607 94.092 262.593 95.348 C 264.579 96.603 266.09 98.31 267.123 100.466 C 268.155 102.621 268.672 105.028 268.672 107.684 C 268.672 110.33 268.155 112.73 267.123 114.886 C 266.09 117.042 264.579 118.749 262.593 120.004 C 260.607 121.259 258.242 121.888 255.5 121.888 C 252.758 121.888 250.394 121.259 248.407 120.004 C 246.421 118.749 244.91 117.042 243.877 114.886 C 242.854 112.73 242.343 110.33 242.343 107.684 C 242.343 105.028 242.854 102.621 243.877 100.466 C 244.91 98.31 246.421 96.603 248.407 95.348 C 250.394 94.092 252.758 93.464 255.5 93.464 Z M 250.091 107.684 C 250.091 110.818 250.483 113.531 251.268 115.82 C 252.063 118.109 253.474 119.254 255.5 119.254 C 257.507 119.254 258.908 118.098 259.702 115.786 C 260.507 113.486 260.909 110.785 260.909 107.684 C 260.909 104.572 260.517 101.871 259.732 99.582 C 258.947 97.293 257.537 96.148 255.5 96.148 C 253.474 96.148 252.063 97.293 251.268 99.582 C 250.483 101.871 250.091 104.572 250.091 107.684 Z M 298.048 118.52 L 301.833 119.571 L 301.833 121.371 L 291.119 121.371 L 284.563 108.718 L 282.119 111.452 L 282.119 118.52 L 286.127 119.571 L 286.127 121.371 L 271.018 121.371 L 271.018 119.571 L 274.952 118.52 L 274.952 83.595 L 271.018 82.194 L 271.018 81.01 L 281.091 78.476 L 282.119 78.476 L 282.119 107.734 L 289.644 98.898 C 290.41 97.965 290.791 97.343 290.791 97.031 C 290.791 96.72 290.523 96.476 289.987 96.298 C 289.45 96.131 288.398 95.959 286.828 95.781 L 286.828 93.981 L 299.523 93.981 L 299.523 95.781 C 298.173 95.993 297.145 96.219 296.439 96.465 C 295.723 96.71 295.157 96.981 294.74 97.281 C 294.323 97.593 293.827 98.077 293.25 98.732 L 289.316 103.233 L 298.048 118.52 Z" style="white-space: pre;"/>
  <path d="M 177.057 151.436 C 177.057 147.435 177.832 143.867 179.382 140.733 C 180.942 137.599 183.097 135.153 185.849 133.398 C 188.601 131.643 191.735 130.764 195.251 130.764 C 197.189 130.764 199.111 131.042 201.018 131.598 C 202.936 132.143 204.649 132.915 206.159 133.915 L 206.338 133.915 L 208.364 131.281 L 209.75 131.281 L 209.75 143.951 L 207.545 143.951 C 206.859 141.95 206.178 140.378 205.503 139.233 C 204.43 137.377 203.153 136.01 201.674 135.132 C 200.194 134.253 198.485 133.815 196.548 133.815 C 192.972 133.815 190.285 135.253 188.486 138.133 C 186.679 141.012 185.774 145.273 185.774 150.919 C 185.774 156.642 186.679 161 188.486 163.989 C 190.285 166.99 192.908 168.49 196.354 168.49 C 198.232 168.49 199.941 168.035 201.48 167.123 C 203.019 166.212 204.316 164.911 205.369 163.222 C 206.502 161.322 207.272 159.166 207.679 156.754 L 209.75 156.754 L 209.75 171.074 L 208.051 171.074 L 206.159 167.657 C 204.371 169.036 202.587 170.036 200.809 170.658 C 199.041 171.28 197.144 171.591 195.117 171.591 C 191.571 171.591 188.437 170.746 185.715 169.057 C 182.984 167.369 180.857 165.001 179.337 161.955 C 177.817 158.91 177.057 155.404 177.057 151.436 Z M 228.096 169.274 L 228.096 171.074 L 213.314 171.074 L 213.314 169.274 L 217.233 168.224 L 217.233 133.298 L 213.314 131.898 L 213.314 130.664 L 223.432 128.18 L 224.4 128.18 L 224.4 168.224 L 228.096 169.274 Z M 255.154 166.423 L 258.656 167.874 L 258.656 169.057 L 249.239 171.591 L 248.225 171.591 L 248.225 168.34 L 248.076 168.174 C 246.974 169.207 245.727 170.036 244.336 170.658 C 242.955 171.28 241.599 171.591 240.268 171.591 C 238.798 171.591 237.522 171.236 236.439 170.524 C 235.366 169.824 234.536 168.802 233.95 167.457 C 233.672 166.802 233.488 166.002 233.399 165.056 C 233.299 164.111 233.25 162.467 233.25 160.122 L 233.25 146.535 L 229.793 145.484 L 229.793 143.684 L 240.417 143.684 L 240.417 157.838 C 240.417 159.705 240.447 161.077 240.507 161.955 C 240.566 162.834 240.69 163.528 240.879 164.039 C 241.495 165.94 242.787 166.89 244.753 166.89 C 246.016 166.89 247.093 166.39 247.987 165.39 L 247.987 146.535 L 244.753 145.484 L 244.753 143.684 L 255.154 143.684 L 255.154 166.423 Z M 275.801 171.591 C 273.219 171.591 270.909 170.796 268.872 169.207 L 268.589 169.207 L 264.625 171.074 L 263.284 171.074 L 263.284 133.298 L 259.41 131.898 L 259.41 130.714 L 269.423 128.18 L 270.437 128.18 L 270.437 146.835 C 271.52 145.668 272.707 144.763 273.998 144.117 C 275.29 143.484 276.661 143.167 278.11 143.167 C 280.107 143.167 281.876 143.717 283.415 144.818 C 284.965 145.918 286.167 147.463 287.021 149.452 C 287.885 151.431 288.318 153.692 288.318 156.237 C 288.318 159.105 287.772 161.705 286.678 164.039 C 285.586 166.385 284.077 168.229 282.149 169.574 C 280.232 170.919 278.116 171.591 275.801 171.591 Z M 274.877 168.807 C 276.576 168.807 277.938 167.79 278.96 165.756 C 279.994 163.723 280.51 161.034 280.51 157.688 C 280.51 154.375 280.028 151.803 279.064 149.969 C 278.091 148.124 276.71 147.202 274.922 147.202 C 273.134 147.202 271.639 148.202 270.437 150.202 L 270.437 162.289 C 270.437 164.256 270.849 165.835 271.673 167.023 C 272.488 168.212 273.557 168.807 274.877 168.807 Z" style="white-space: pre;"/>
  <path d="M 172.3 124.641 L 177.356 124.641 L 173.274 147.658 L 114.244 147.658 L 114.244 144.021 L 122.503 142.146 L 122.503 77.432 L 114.244 75.556 L 114.244 71.919 L 173.761 71.919 L 175.596 93.553 L 171.513 93.553 C 169.378 87.264 166.882 81.922 164.022 77.527 L 139.227 77.527 L 139.227 104.977 L 151.493 104.977 C 153.366 101.756 154.758 98.049 155.67 93.857 L 159.752 93.857 L 159.752 121.402 L 155.67 121.402 C 154.821 117.461 153.428 113.754 151.493 110.281 L 139.227 110.281 L 139.227 142.051 L 163.442 142.051 C 165.328 139.499 166.882 136.923 168.105 134.322 C 169.341 131.732 170.74 128.506 172.3 124.641 Z" style="white-space: pre;"/>
  <path d="M 346.279 70.829 C 341.607 67.293 330.862 74.124 327.323 80.138 C 325.742 82.832 325.616 84.769 325.492 85.871 L 318.917 144.734 L 352.908 175.626 L 360.519 170.528 L 366.924 113.2 L 331.751 83.934 C 334.196 80.493 339.306 76.298 342.597 77.98 L 374.126 102.263 L 366.992 166.127 L 374.62 161.019 L 381.755 97.158 L 346.279 70.829 Z" style="" transform="matrix(-0.570428, 0.821347, -0.821347, -0.570428, 650.99202, -94.98885)"/>
  <path d="M 144.834 166.749 C 139.208 167.096 134.007 169.588 130.231 173.749 L 126.656 177.657 L 141.695 192.458 L 145.369 188.437 C 144.089 186.031 144.388 183.126 146.116 181.214 L 149.794 177.199 C 151.552 175.307 154.332 174.848 156.717 176.051 L 160.603 171.805 C 156.012 168.24 150.414 166.446 144.84 166.749 L 144.834 166.749 Z M 165.032 176.044 L 160.93 180.523 C 161.915 182.814 161.52 185.426 159.934 187.179 L 156.252 191.186 C 154.653 192.921 152.16 193.464 149.897 192.566 L 146.012 196.812 L 161.158 211.617 L 164.729 207.709 C 172.652 199.062 172.56 185.464 165.032 176.044 Z M 154.204 179.032 C 153.545 179.048 152.916 179.333 152.472 179.836 L 148.795 183.848 C 147.884 184.867 147.968 186.497 148.98 187.517 L 150.029 188.55 C 150.523 189.045 151.17 189.339 151.841 189.357 C 152.511 189.337 153.136 189.045 153.574 188.55 L 157.254 184.537 C 157.713 184.054 157.954 183.388 157.936 182.703 C 157.886 182.01 157.571 181.348 157.067 180.866 L 156.021 179.836 C 155.536 179.332 154.881 179.042 154.208 179.027 L 154.204 179.032 Z M 123.398 181.214 L 118.349 186.597 C 109.757 195.984 110.525 211.292 120.055 220.677 C 129.586 230.055 144.269 230.055 152.855 220.677 L 157.899 215.17 L 123.398 181.208 L 123.398 181.214 Z" style="" transform="matrix(0.717151, 0.696918, -0.696918, 0.717151, 177.471588, -42.849545)"/>
  <path style="stroke: rgb(0, 0, 0); stroke-width: 5px; fill: rgba(0, 0, 0, 0);" d="M 171.131 189.311 C 196.14 189.311 221.128 187.963 246.043 185.273 C 285.845 180.976 325.46 173.256 364.675 162.141" transform="matrix(0.998097, -0.061667, 0.061667, 0.998097, -10.326615, 16.855215)"/>
</svg>